<svg width="39" height="39" viewBox="0 0 39 39" fill="none" xmlns="http://www.w3.org/2000/svg">
<path d="M28.1823 19.1645C28.2173 14.3333 24.3663 10.2723 19.5001 10.0622C17.5046 9.9572 15.6141 10.5524 14.0737 11.5676C12.5334 10.5524 10.6429 9.9572 8.64739 10.0622C3.8512 10.2373 -0.034774 14.2983 0.000234702 19.1645C0.000234702 20.7049 0.805436 23.5756 2.87095 24.6609C2.80093 26.2713 2.48585 31.6976 5.91671 35.5136C7.28205 37.054 9.69765 37.089 11.098 35.5836C11.6231 35.0235 12.0782 34.2533 12.2883 33.273C12.5334 32.2578 12.7784 30.7524 12.9885 29.142C13.1635 27.8817 14.984 27.8817 15.159 29.142C15.4041 30.7174 15.6491 32.2228 15.8592 33.273C16.0692 34.2883 16.5244 35.0235 17.0495 35.5836C18.4498 37.089 20.8654 37.054 22.2308 35.5136C25.6616 31.7326 25.3466 26.2713 25.2765 24.6609C27.307 23.6806 28.1823 20.7049 28.1823 19.1645ZM5.63664 14.1583C4.97148 14.7184 4.41134 15.3836 3.95622 16.1537C3.32606 17.274 2.97598 18.5343 2.97598 19.7947C2.97598 20.1798 2.6609 20.4948 2.24079 20.4948C1.82069 20.4948 1.50561 20.1798 1.50561 19.7596C1.50561 18.2543 1.92572 16.7139 2.6609 15.4186C3.18603 14.5083 3.8512 13.7031 4.6564 13.003C4.97148 12.7579 5.42659 12.7929 5.67165 13.108C5.98673 13.4581 5.95172 13.9132 5.63664 14.1583ZM7.21203 13.038L7.072 13.108C6.96697 13.178 6.86195 13.178 6.72191 13.178C6.47685 13.178 6.19678 13.038 6.09175 12.7929C5.91671 12.4428 6.05675 11.9877 6.40683 11.8127L6.54687 11.7426C6.89696 11.5676 7.35207 11.7076 7.52711 12.0577C7.70216 12.4078 7.56212 12.8629 7.21203 13.038Z" fill="white"/>
<path d="M21.4256 1.625C15.6842 1.625 10.5729 4.39069 7.38708 8.62675C7.77218 8.55673 8.19229 8.52172 8.61239 8.48671C8.75243 8.48671 8.92747 8.48671 9.0675 8.48671C9.48761 8.48671 9.90771 8.52172 10.3278 8.55673C10.3978 8.48671 10.5029 8.38169 10.5729 8.31167C13.4786 5.40594 17.3296 3.83055 21.4256 3.83055C23.071 3.83055 24.6814 4.07561 26.2218 4.60074C26.5019 4.60074 28.2173 4.60074 28.2173 4.60074C28.2173 4.60074 28.2173 3.06036 28.2173 2.99034C26.1518 2.11512 23.8412 1.625 21.4256 1.625Z" fill="white"/>
<path d="M37.4946 12.0576C36.8644 12.0576 35.7792 12.0576 35.7792 12.0576C35.7792 12.0576 35.7792 13.528 35.7792 13.738C36.4093 15.4535 36.7594 17.2739 36.7594 19.1294C36.7594 23.2254 35.149 27.0764 32.2783 29.9821C30.2828 31.9776 27.7972 33.3779 25.1365 34.0081C24.6814 34.8833 24.1212 35.7235 23.3861 36.4937C23.3511 36.5287 23.316 36.5637 23.316 36.5987C32.1382 35.6535 39 28.1966 39 19.1644C38.9649 16.6438 38.4398 14.2282 37.4946 12.0576Z" fill="white"/>
<path d="M37.0745 6.03646H34.2738V3.23576C34.2738 2.71063 33.8537 2.29053 33.3285 2.29053H30.6679C30.1427 2.29053 29.7226 2.71063 29.7226 3.23576V6.03646H26.9219C26.3968 6.03646 25.9767 6.45657 25.9767 6.9817V9.64236C25.9767 10.1675 26.3968 10.5876 26.9219 10.5876H29.7226V13.3883C29.7226 13.9134 30.1427 14.3335 30.6679 14.3335H33.3285C33.8537 14.3335 34.2738 13.9134 34.2738 13.3883V10.5876H37.0745C37.5996 10.5876 38.0197 10.1675 38.0197 9.64236V6.9817C38.0197 6.45657 37.5996 6.03646 37.0745 6.03646ZM31.228 5.65137C31.228 5.89643 31.053 6.07147 30.8079 6.07147C30.5628 6.07147 30.3878 5.89643 30.3878 5.65137V4.63611C30.3878 4.39105 30.5628 4.21601 30.8079 4.21601C31.053 4.21601 31.228 4.39105 31.228 4.63611V5.65137ZM31.228 3.41081C31.228 3.62086 31.053 3.83091 30.8079 3.83091C30.5628 3.83091 30.3878 3.65587 30.3878 3.41081V3.30578C30.3878 3.06072 30.5628 2.88568 30.8079 2.88568C31.053 2.88568 31.228 3.06072 31.228 3.30578V3.41081Z" fill="white"/>
</svg>
