<svg width="148" height="93" viewBox="0 0 148 93" fill="none" xmlns="http://www.w3.org/2000/svg">
<path d="M147 6.47989H147.25V6.22989V1V0.75H147H146.994H146.988H146.983H146.977H146.971H146.965H146.959H146.954H146.948H146.942H146.936H146.931H146.925H146.919H146.913H146.908H146.902H146.896H146.89H146.885H146.879H146.873H146.867H146.862H146.856H146.85H146.844H146.839H146.833H146.827H146.822H146.816H146.81H146.805H146.799H146.793H146.787H146.782H146.776H146.77H146.765H146.759H146.753H146.748H146.742H146.736H146.731H146.725H146.719H146.714H146.708H146.702H146.697H146.691H146.685H146.68H146.674H146.668H146.663H146.657H146.652H146.646H146.64H146.635H146.629H146.623H146.618H146.612H146.607H146.601H146.595H146.59H146.584H146.579H146.573H146.567H146.562H146.556H146.551H146.545H146.539H146.534H146.528H146.523H146.517H146.512H146.506H146.5H146.495H146.489H146.484H146.478H146.473H146.467H146.462H146.456H146.45H146.445H146.439H146.434H146.428H146.423H146.417H146.412H146.406H146.401H146.395H146.39H146.384H146.378H146.373H146.367H146.362H146.356H146.351H146.345H146.34H146.334H146.329H146.323H146.318H146.312H146.307H146.301H146.296H146.29H146.285H146.279H146.274H146.268H146.263H146.257H146.252H146.246H146.241H146.235H146.23H146.225H146.219H146.214H146.208H146.203H146.197H146.192H146.186H146.181H146.175H146.17H146.164H146.159H146.153H146.148H146.143H146.137H146.132H146.126H146.121H146.115H146.11H146.104H146.099H146.094H146.088H146.083H146.077H146.072H146.066H146.061H146.055H146.05H146.045H146.039H146.034H146.028H146.023H146.017H146.012H146.007H146.001H145.996H145.99H145.985H145.979H145.974H145.969H145.963H145.958H145.952H145.947H145.941H145.936H145.931H145.925H145.92H145.914H145.909H145.904H145.898H145.893H145.887H145.882H145.877H145.871H145.866H145.86H145.855H145.85H145.844H145.839H145.833H145.828H145.823H145.817H145.812H145.806H145.801H145.796H145.79H145.785H145.779H145.774H145.769H145.763H145.758H145.752H145.747H145.742H145.736H145.731H145.725H145.72H145.715H145.709H145.704H145.698H145.693H145.688H145.682H145.677H145.671H145.666H145.661H145.655H145.65H145.645H145.639H145.634H145.628H145.623H145.618H145.612H145.607H145.601H145.596H145.591H145.585H145.58H145.574H145.569H145.564H145.558H145.553H145.548H145.542H145.537H145.531H145.526H145.521H145.515H145.51H145.504H145.499H145.494H145.488H145.483H145.477H145.472H145.467H145.461H145.456H145.451H145.445H145.44H145.434H145.429H145.424H145.418H145.413H145.407H145.402H145.397H145.391H145.386H145.38H145.375H145.37H145.364H145.359H145.353H145.348H145.343H145.337H145.332H145.326H145.321H145.316H145.31H145.305H145.299H145.294H145.289H145.283H145.278H145.272H145.267H145.262H145.256H145.251H145.245H145.24H145.234H145.229H145.224H145.218H145.213H145.207H145.202H145.197H145.191H145.186H145.18H145.175H145.169H145.164H145.159H145.153H145.148H145.142H145.137H145.131H145.126H145.121H145.115H145.11H145.104H145.099H145.093H145.088H145.082H145.077H145.072H145.066H145.061H145.055H145.05H145.044H145.039H145.033H145.028H145.023H145.017H145.012H145.006H145.001H144.995H144.99H144.984H144.979H144.973H144.968H144.962H144.957H144.951H144.946H144.941H144.935H144.93H144.924H144.919H144.913H144.908H144.902H144.897H144.891H144.886H144.88H144.875H144.869H144.864H144.858H144.853H144.847H144.842H144.836H144.831H144.825H144.82H144.814H144.809H144.803H144.798H144.792H144.787H144.781H144.775H144.77H144.764H144.759H144.753H144.748H144.742H144.737H144.731H144.726H144.72H144.715H144.709H144.703H144.698H144.692H144.687H144.681H144.676H144.67H144.665H144.659H144.653H144.648H144.642H144.637H144.631H144.625H144.62H144.614H144.609H144.603H144.598H144.592H144.586H144.581H144.575H144.57H144.564H144.558H144.553H144.547H144.541H144.536H144.53H144.525H144.519H144.513H144.508H144.502H144.496H144.491H144.485H144.479H144.474H144.468H144.463H144.457H144.451H144.446H144.44H144.434H144.429H144.423H144.417H144.412H144.406H144.4H144.395H144.389H144.383H144.377H144.372H144.366H144.36H144.355H144.349H144.343H144.338H144.332H144.326H144.32H144.315H144.309H144.303H144.297H144.292H144.286H144.28H144.274H144.269H144.263H144.257H144.251H144.246H144.24H144.234H144.228H144.223H144.217H144.211H144.205H144.2H144.194H144.188H144.182H144.176H144.171C75.8952 0.75 18.0626 39.5005 0.762594 91.9216L0.654233 92.25H1H5.38567H5.56279L5.62152 92.0829C22.9802 42.6941 78.4681 6.47989 144.171 6.47989H144.176H144.182H144.188H144.194H144.2H144.205H144.211H144.217H144.223H144.228H144.234H144.24H144.246H144.251H144.257H144.263H144.269H144.274H144.28H144.286H144.292H144.297H144.303H144.309H144.315H144.32H144.326H144.332H144.338H144.343H144.349H144.355H144.36H144.366H144.372H144.377H144.383H144.389H144.395H144.4H144.406H144.412H144.417H144.423H144.429H144.434H144.44H144.446H144.451H144.457H144.463H144.468H144.474H144.479H144.485H144.491H144.496H144.502H144.508H144.513H144.519H144.525H144.53H144.536H144.541H144.547H144.553H144.558H144.564H144.57H144.575H144.581H144.586H144.592H144.598H144.603H144.609H144.614H144.62H144.625H144.631H144.637H144.642H144.648H144.653H144.659H144.665H144.67H144.676H144.681H144.687H144.692H144.698H144.703H144.709H144.715H144.72H144.726H144.731H144.737H144.742H144.748H144.753H144.759H144.764H144.77H144.775H144.781H144.787H144.792H144.798H144.803H144.809H144.814H144.82H144.825H144.831H144.836H144.842H144.847H144.853H144.858H144.864H144.869H144.875H144.88H144.886H144.891H144.897H144.902H144.908H144.913H144.919H144.924H144.93H144.935H144.941H144.946H144.951H144.957H144.962H144.968H144.973H144.979H144.984H144.99H144.995H145.001H145.006H145.012H145.017H145.023H145.028H145.033H145.039H145.044H145.05H145.055H145.061H145.066H145.072H145.077H145.082H145.088H145.093H145.099H145.104H145.11H145.115H145.121H145.126H145.131H145.137H145.142H145.148H145.153H145.159H145.164H145.169H145.175H145.18H145.186H145.191H145.197H145.202H145.207H145.213H145.218H145.224H145.229H145.234H145.24H145.245H145.251H145.256H145.262H145.267H145.272H145.278H145.283H145.289H145.294H145.299H145.305H145.31H145.316H145.321H145.326H145.332H145.337H145.343H145.348H145.353H145.359H145.364H145.37H145.375H145.38H145.386H145.391H145.397H145.402H145.407H145.413H145.418H145.424H145.429H145.434H145.44H145.445H145.451H145.456H145.461H145.467H145.472H145.477H145.483H145.488H145.494H145.499H145.504H145.51H145.515H145.521H145.526H145.531H145.537H145.542H145.548H145.553H145.558H145.564H145.569H145.574H145.58H145.585H145.591H145.596H145.601H145.607H145.612H145.618H145.623H145.628H145.634H145.639H145.645H145.65H145.655H145.661H145.666H145.671H145.677H145.682H145.688H145.693H145.698H145.704H145.709H145.715H145.72H145.725H145.731H145.736H145.742H145.747H145.752H145.758H145.763H145.769H145.774H145.779H145.785H145.79H145.796H145.801H145.806H145.812H145.817H145.823H145.828H145.833H145.839H145.844H145.85H145.855H145.86H145.866H145.871H145.877H145.882H145.887H145.893H145.898H145.904H145.909H145.914H145.92H145.925H145.931H145.936H145.941H145.947H145.952H145.958H145.963H145.969H145.974H145.979H145.985H145.99H145.996H146.001H146.007H146.012H146.017H146.023H146.028H146.034H146.039H146.045H146.05H146.055H146.061H146.066H146.072H146.077H146.083H146.088H146.094H146.099H146.104H146.11H146.115H146.121H146.126H146.132H146.137H146.143H146.148H146.153H146.159H146.164H146.17H146.175H146.181H146.186H146.192H146.197H146.203H146.208H146.214H146.219H146.225H146.23H146.235H146.241H146.246H146.252H146.257H146.263H146.268H146.274H146.279H146.285H146.29H146.296H146.301H146.307H146.312H146.318H146.323H146.329H146.334H146.34H146.345H146.351H146.356H146.362H146.367H146.373H146.378H146.384H146.39H146.395H146.401H146.406H146.412H146.417H146.423H146.428H146.434H146.439H146.445H146.45H146.456H146.462H146.467H146.473H146.478H146.484H146.489H146.495H146.5H146.506H146.512H146.517H146.523H146.528H146.534H146.539H146.545H146.551H146.556H146.562H146.567H146.573H146.579H146.584H146.59H146.595H146.601H146.607H146.612H146.618H146.623H146.629H146.635H146.64H146.646H146.652H146.657H146.663H146.668H146.674H146.68H146.685H146.691H146.697H146.702H146.708H146.714H146.719H146.725H146.731H146.736H146.742H146.748H146.753H146.759H146.765H146.77H146.776H146.782H146.787H146.793H146.799H146.805H146.81H146.816H146.822H146.827H146.833H146.839H146.844H146.85H146.856H146.862H146.867H146.873H146.879H146.885H146.89H146.896H146.902H146.908H146.913H146.919H146.925H146.931H146.936H146.942H146.948H146.954H146.959H146.965H146.971H146.977H146.983H146.988H146.994H147Z" fill="white" stroke="white" stroke-width="0.5"/>
</svg>
